<?xml version="1.0" encoding="utf-8"?>
<!-- Generator: Adobe Illustrator 22.0.1, SVG Export Plug-In . SVG Version: 6.00 Build 0)  -->
<svg version="1.1" id="Capa_1" xmlns="http://www.w3.org/2000/svg" xmlns:xlink="http://www.w3.org/1999/xlink" x="0px" y="0px"
	 viewBox="0 0 200 200" style="enable-background:new 0 0 200 200;" xml:space="preserve">
<style type="text/css">
	.st0{fill:#FFFFFF;}
</style>
<g>
	<g>
		<g>
			<g>
				<g>
					<polygon class="st0" points="87.8,37.6 68,23.3 100,33.8 					"/>
					<polygon class="st0" points="100,46.5 80.2,60.9 100,33.7 					"/>
					<polygon class="st0" points="112.2,37.6 119.8,60.9 100,33.7 					"/>
					<polygon class="st0" points="107.5,23.3 132,23.3 100,33.7 					"/>
					<polygon class="st0" points="92.5,23.3 100,0 100,33.8 					"/>
				</g>
			</g>
		</g>
		<g>
			<g>
				<g>
					<g>
						<path class="st0" d="M63.6,79.2v2.2c-4.6,0.3-7.6,1.1-9,2.4c-1.4,1.2-2,4-2,8.4v38.4c0,6.3,0.8,11.2,2.6,14.7
							c3.2,6.4,9.3,9.6,18.2,9.6c9.8,0,16.4-3.3,19.7-9.8c1.9-3.7,2.8-9.3,2.8-17V96.9c0-6.5-0.8-10.6-2.4-12.3
							c-1.6-1.7-4.5-2.7-8.9-3.1v-2.2h27.7v2.2c-4.7,0.5-7.7,1.7-9.1,3.4c-1.4,1.7-2.1,5.7-2.1,12v31.2c0,8.3-1.3,14.7-3.8,19.4
							c-4.7,8.6-13.6,12.8-26.7,12.8c-13,0-21.8-4.2-26.5-12.7c-2.5-4.5-3.8-10.5-3.8-17.9V92.2c0-4.4-0.7-7.1-2.1-8.4
							c-1.3-1.2-4.2-2-8.8-2.4v-2.2H63.6z"/>
					</g>
					<path class="st0" d="M152.2,79.2c4.6,1.3,7.1,1.9,7.7,1.9c1.1,0,2.2-0.3,3.2-0.9c1-0.6,1.7-1.6,2.1-2.9h2.5l1.1,27h-2.8
						c-1.6-5.4-3.7-9.7-6.3-13c-4.9-6.2-11.6-9.3-19.9-9.3c-8.4,0-15.3,3.3-20.6,10c-5.3,6.7-8,15.8-8,27.5
						c0,10.7,2.8,19.3,8.4,25.7c5.6,6.4,12.7,9.6,21.4,9.6c6.2,0,12-1.5,17.2-4.5c2.9-1.6,6.2-3.8,9.4-7.2c0.7-0.8,1.3-1.6,1.7-2.3
						l1,4.1c-2.7,3.4-6,6.3-9.9,8.9c-6.7,4.3-14,6.5-21.9,6.5c-12.9,0-23.2-4.1-30.7-12.4c-7-7.6-10.5-17.2-10.5-28.6
						c0-11.7,3.7-21.5,11.1-29.5c7.8-8.3,17.9-12.5,30.4-12.5C143.1,77.3,147.6,77.9,152.2,79.2"/>
				</g>
			</g>
		</g>
	</g>
	<g>
		<g>
			<path class="st0" d="M44.3,190.1h6.5v8.9c-1.1,0.3-2.1,0.6-3.1,0.7s-2,0.2-3.2,0.2c-2.7,0-4.8-0.8-6.2-2.4
				c-1.5-1.6-2.2-3.8-2.2-6.7c0-2.9,0.8-5.1,2.5-6.7c1.6-1.6,3.9-2.4,6.8-2.4c1.9,0,3.6,0.4,5.3,1.1l-1,2.4c-1.4-0.7-2.9-1-4.3-1
				c-1.9,0-3.4,0.6-4.5,1.8c-1.1,1.2-1.6,2.8-1.6,4.9c0,2.2,0.5,3.8,1.5,4.9c1,1.1,2.4,1.7,4.3,1.7c0.9,0,1.9-0.1,3-0.4v-4.6h-3.7
				V190.1z"/>
			<path class="st0" d="M77.4,182v11.5c0,1.3-0.3,2.5-0.8,3.4c-0.6,1-1.4,1.7-2.4,2.3c-1.1,0.5-2.3,0.8-3.8,0.8
				c-2.2,0-3.9-0.6-5.1-1.7c-1.2-1.2-1.8-2.8-1.8-4.8V182h2.9v11.2c0,1.5,0.3,2.5,1,3.2c0.7,0.7,1.7,1,3.1,1c2.7,0,4.1-1.4,4.1-4.3
				V182H77.4z"/>
			<path class="st0" d="M101.4,199.8l-1.8-4.9h-6.8l-1.7,4.9H88l6.6-17.8h3.2l6.6,17.8H101.4z M98.8,192.3l-1.7-4.8
				c-0.1-0.3-0.3-0.8-0.5-1.5c-0.2-0.7-0.4-1.2-0.4-1.5c-0.2,1-0.5,2.1-1,3.3l-1.6,4.6H98.8z"/>
			<path class="st0" d="M115.2,199.8V182h2.9v17.7H115.2z"/>
			<path class="st0" d="M134.1,192.7v7.1h-2.9V182h5c2.3,0,4,0.4,5.1,1.3c1.1,0.9,1.6,2.2,1.6,3.9c0,2.2-1.1,3.8-3.4,4.7l5,7.8h-3.3
				l-4.2-7.1H134.1z M134.1,190.3h2c1.3,0,2.3-0.2,2.9-0.8c0.6-0.5,0.9-1.2,0.9-2.2c0-1-0.3-1.7-1-2.2c-0.7-0.4-1.6-0.7-3-0.7h-1.9
				V190.3z"/>
			<path class="st0" d="M166.5,199.8l-1.8-4.9H158l-1.7,4.9h-3.1l6.6-17.8h3.2l6.6,17.8H166.5z M164,192.3l-1.7-4.8
				c-0.1-0.3-0.3-0.8-0.5-1.5c-0.2-0.7-0.4-1.2-0.4-1.5c-0.2,1-0.5,2.1-1,3.3l-1.6,4.6H164z M159.7,180.6v-0.3
				c0.5-0.6,0.9-1.2,1.4-1.9c0.5-0.7,0.9-1.3,1.2-1.8h3.3v0.3c-0.4,0.5-1,1.1-1.9,1.9c-0.8,0.8-1.5,1.4-2.1,1.8H159.7z"/>
		</g>
	</g>
</g>
</svg>
