<svg id="Capa_1" data-name="Capa 1" xmlns="http://www.w3.org/2000/svg" viewBox="0 0 172.17 119.17"><defs><style>.cls-1{fill:#009bdb;}.cls-2{fill:#004693;}.cls-3{fill:#fff;}</style></defs><title>VacunateUC-logo_Mesa de trabajo 1</title><rect class="cls-1" x="86.17" y="0.17" width="86" height="86"/><rect class="cls-2" x="-0.05" y="-0.13" width="86.23" height="86.3"/><polygon class="cls-3" points="37.58 23.86 28.63 17.39 43.06 22.14 37.58 23.86"/><polygon class="cls-3" points="43.06 27.85 34.14 34.36 43.06 22.11 43.06 27.85"/><polygon class="cls-3" points="48.55 23.86 51.98 34.36 43.06 22.11 48.55 23.86"/><polygon class="cls-3" points="46.45 17.41 57.5 17.39 43.06 22.11 46.45 17.41"/><polygon class="cls-3" points="39.67 17.41 43.06 6.9 43.06 22.14 39.67 17.41"/><path class="cls-3" d="M26.68,42.59v1c-2.08.15-3.43.49-4,1.07s-.92,1.81-.92,3.79V65.74a15.36,15.36,0,0,0,1.16,6.64Q25,76.7,31.07,76.7q6.63,0,8.89-4.43c.84-1.66,1.27-4.21,1.27-7.66V50.54c0-2.95-.36-4.78-1.06-5.53s-2-1.22-4-1.42v-1H48.66v1c-2.1.23-3.47.75-4.11,1.54s-1,2.58-1,5.41V64.61c0,3.73-.56,6.64-1.71,8.74q-3.16,5.79-12,5.78t-11.93-5.7a16.65,16.65,0,0,1-1.7-8.07V48.45c0-2-.31-3.22-.93-3.78s-1.92-.91-4-1.08v-1Z"/><path class="cls-3" d="M66.57,42.59a28.85,28.85,0,0,0,3.47.88A2.66,2.66,0,0,0,71.49,43a2.2,2.2,0,0,0,1-1.33h1.14l.5,12.19H72.84A18,18,0,0,0,70,48a10.87,10.87,0,0,0-9-4.18,11.38,11.38,0,0,0-9.3,4.51c-2.4,3-3.6,7.12-3.6,12.39q0,7.25,3.78,11.59a12.27,12.27,0,0,0,9.62,4.31,15.34,15.34,0,0,0,7.75-2,18.3,18.3,0,0,0,4.25-3.24,5.22,5.22,0,0,0,.78-1l.44,1.84a17.82,17.82,0,0,1-4.47,4,18,18,0,0,1-9.86,2.92q-8.71,0-13.84-5.6a18.3,18.3,0,0,1-4.74-12.89,18.83,18.83,0,0,1,5-13.29,17.88,17.88,0,0,1,13.69-5.64,22.2,22.2,0,0,1,6,.88"/><path class="cls-2" d="M22.74,94.8l-7.35,23.73H8L.28,94.8H8l3.75,12.93c.26.77.48,1.52.68,2.26L16.76,94.8Z"/><path class="cls-2" d="M36.74,118.53l-1.34-4.68H29.05l-1.42,4.68h-5.9L29,94.8h7.69l7.43,23.73Zm-6.45-9.86h3.83l-1.91-6.88Z"/><path class="cls-2" d="M58.67,109.47l6.65.4a9.68,9.68,0,0,1-3.22,6.69,10.12,10.12,0,0,1-6.76,2.33,10.13,10.13,0,0,1-7.79-3.2q-3-3.19-3-8.83a13.73,13.73,0,0,1,2.81-9,9.59,9.59,0,0,1,7.85-3.42q4.69,0,7.23,2.61A10.75,10.75,0,0,1,65.32,104l-6.78.37a5.21,5.21,0,0,0-.92-3.44,2.72,2.72,0,0,0-2.14-1.06q-3.43,0-3.44,6.91c0,2.59.3,4.34.9,5.27a2.8,2.8,0,0,0,2.5,1.39C57.37,113.4,58.44,112.09,58.67,109.47Z"/><path class="cls-2" d="M87.2,94.8v15.71q0,4.47-2.65,6.43a11.33,11.33,0,0,1-6.9,2,12.47,12.47,0,0,1-7.2-1.88q-2.72-1.87-2.71-6.11V94.8h7.39V110a3.6,3.6,0,0,0,.72,2.49,3,3,0,0,0,2.3.78,3.84,3.84,0,0,0,2.15-.56,2.22,2.22,0,0,0,1-1.28,15.11,15.11,0,0,0,.16-2.78V94.8Z"/><path class="cls-2" d="M111.35,118.53h-5.92L98.94,108a40.53,40.53,0,0,1-2.52-4.89A16.49,16.49,0,0,1,97,107v11.49h-5.9V94.8H98l5.53,8.69a34.07,34.07,0,0,1,2.5,4.56,33.7,33.7,0,0,1-.56-6.22v-7h5.92Z"/><path class="cls-2" d="M128.55,118.53l-1.34-4.68h-6.35l-1.42,4.68h-5.91l7.32-23.73h7.69L136,118.53Zm-6.45-9.86h3.83L124,101.79Z"/><path class="cls-2" d="M146.54,100.49v18h-6.89v-18h-4.91V94.8h16.71v5.69Z"/><path class="cls-2" d="M171.35,112.86v5.67H153.52V94.8h17.83v5.48H160.66v3.44h8.64V109h-8.64v3.88Z"/><path id="JERINGA" class="cls-3" d="M105.38,82.44l11.89-21,.68.38,6.45-8.67-.59-.33.61-1.07,2.84,1.61a1.25,1.25,0,0,0,1.7-.48L144.7,25,148,26.41l.6-1.06-3.07-1.74-2.62-1.48,6.06-10.7,3.05.71,1-1.7-5.78-3.27L141.4,3.9l-1,1.7,2.18,2.26-6.06,10.7L134,17.08l-3.07-1.74-.6,1.06,2.86,2.1L117.41,46.32a1.19,1.19,0,0,0-.12.94,1.23,1.23,0,0,0,.59.76l2.84,1.61-.61,1.07-.58-.33-4.11,10,.68.38-9.7,17.15Zm13.74-35.63,15.41-27.23,1.1.63L142,23.78l1.11.62-3.85,6.81-1.11-.63-4.78-2.7L132.67,29l4.78,2.7,1.11.63L137,35.07l-1.11-.63-4.78-2.71-.66,1.15,4.79,2.71,1.11.63-1.53,2.7L129,35.59l-.65,1.16,5.9,3.32-1.54,2.71-5.89-3.33-.65,1.15L132,43.93l-1.53,2.71-5.89-3.33-.65,1.15,5.89,3.33-2.18,3.85-2.41-1.37-3.7-2.09Z"/></svg>