<svg id="Capa_1" data-name="Capa 1" xmlns="http://www.w3.org/2000/svg" viewBox="0 0 103.11 78.22"><defs><style>.cls-1{fill:#fff;}</style></defs><title>VacunateUC-logo-blanco</title><polygon class="cls-1" points="28.52 17.83 19.57 11.36 34.01 16.11 28.52 17.83"/><polygon class="cls-1" points="34.01 21.82 25.09 28.33 34.01 16.08 34.01 21.82"/><polygon class="cls-1" points="39.49 17.83 42.93 28.33 34.01 16.08 39.49 17.83"/><polygon class="cls-1" points="37.4 11.38 48.44 11.36 34.01 16.08 37.4 11.38"/><polygon class="cls-1" points="30.62 11.38 34.01 0.87 34.01 16.11 30.62 11.38"/><path class="cls-1" d="M17.62,36.56v1c-2.08.15-3.43.49-4,1.07s-.93,1.81-.93,3.79V59.71a15.36,15.36,0,0,0,1.16,6.64Q16,70.67,22,70.67q6.61,0,8.88-4.43,1.27-2.49,1.27-7.66V44.51c0-2.95-.36-4.78-1.06-5.53s-2-1.22-4-1.42v-1H39.6v1c-2.1.23-3.47.75-4.11,1.54s-1,2.58-1,5.41V58.58q0,5.6-1.71,8.74-3.16,5.79-12,5.78T8.89,67.4a16.55,16.55,0,0,1-1.71-8.07V42.42c0-2-.31-3.22-.93-3.78s-1.91-.91-3.95-1.08v-1Z"/><path class="cls-1" d="M57.52,36.56a28.46,28.46,0,0,0,3.46.88A2.64,2.64,0,0,0,62.43,37a2.21,2.21,0,0,0,1-1.33h1.13L65,47.86H63.79A17.92,17.92,0,0,0,61,42a10.9,10.9,0,0,0-9-4.18,11.4,11.4,0,0,0-9.31,4.51q-3.59,4.5-3.59,12.38,0,7.26,3.78,11.6a12.24,12.24,0,0,0,9.61,4.31,15.32,15.32,0,0,0,7.75-2,18.12,18.12,0,0,0,4.26-3.24,5.52,5.52,0,0,0,.78-1l.43,1.84a17.79,17.79,0,0,1-4.46,4,18,18,0,0,1-9.86,2.92q-8.73,0-13.85-5.6a18.29,18.29,0,0,1-4.73-12.89,18.8,18.8,0,0,1,5-13.29,17.9,17.9,0,0,1,13.69-5.64,22.22,22.22,0,0,1,6,.88"/><path id="JERINGA" class="cls-1" d="M76.32,73.41,82.23,63l.33.19,3.2-4.3-.29-.16.31-.54,1.41.8a.58.58,0,0,0,.47.06.64.64,0,0,0,.37-.29l7.81-13.81,1.63.68.3-.53-1.53-.86-1.3-.74,3-5.31,1.51.35.48-.84L97.07,36l-2.86-1.63-.48.85,1.08,1.12-3,5.31L90.51,41,89,40.09l-.29.53,1.41,1L82.29,55.47a.64.64,0,0,0-.05.47.59.59,0,0,0,.29.38l1.41.8-.3.53-.29-.17-2,5,.33.19-4.81,8.52Zm6.83-17.69L90.79,42.2l.55.31,3.14,1.77.55.31L93.12,48l-.55-.31-2.38-1.34-.32.57,2.38,1.34.54.31L92,49.89l-.54-.31-2.38-1.35-.32.57,2.37,1.35.55.31L91,51.8,88,50.15l-.33.57,2.93,1.65-.76,1.35-2.93-1.66-.32.58,2.92,1.65-.76,1.34L85.86,54l-.32.57,2.92,1.66-1.08,1.91-1.2-.68-1.84-1Z"/></svg>